# xmcd
# 
# Track frame offsets:
#     150
#     18395
#     38420
#     60440
#     78672
# 
# Disc length: 1314
# 
# Revision: 0
# Processed by: cddbd v1.5.2PL0 Copyright (c) Steve Scherf et al.
# Submitted via: fre:ac v1.0.27
# 
DISCID=2f052005
DTITLE=CHEMISTRY - Heaven Only Knows - 13ヶ月
DYEAR=2018
DGENRE=JPop
TTITLE0=Heaven Only Knows
TTITLE1=13ヶ月
TTITLE2=Heaven Only Knows(T-Groove Remix)
TTITLE3=Heaven Only Knows - Instrumental -
TTITLE4=13ヶ月- Instrumental -
EXTD=
EXTT0=
EXTT1=
EXTT2=
EXTT3=
EXTT4=
PLAYORDER=
